<?xml version="1.0" encoding="UTF-8" standalone="no"?>
<!DOCTYPE svg PUBLIC "-//W3C//DTD SVG 1.1//EN" "http://www.w3.org/Graphics/SVG/1.1/DTD/svg11.dtd">
<svg width="100%" height="100%" viewBox="0 0 1143 1119" version="1.1" xmlns="http://www.w3.org/2000/svg" xmlns:xlink="http://www.w3.org/1999/xlink" xml:space="preserve" xmlns:serif="http://www.serif.com/" style="fill-rule:evenodd;clip-rule:evenodd;stroke-linejoin:round;stroke-miterlimit:2;">
    <g transform="matrix(1,0,0,1,-6463.29,-663.1)">
        <g transform="matrix(4.16667,0,0,4.16667,4292.81,0)">
            <g transform="matrix(0,-1,-1,0,658.579,125.524)">
                <path d="M-270.828,73.262C-271.796,73.627 -276.324,74.821 -284.145,69.18C-278.44,85.633 -262.409,89.51 -262.409,89.51C-262.409,89.51 -267.148,91.167 -277.614,85.34C-268.557,101.954 -256.639,98.949 -256.639,98.949C-256.639,98.949 -254.335,100.491 -263.236,102.087C-254.386,109.152 -232.143,110.573 -223.472,106.848C-211.885,102.478 -191.416,98.108 -174.76,100.05C-171.972,100.375 -169.391,101.11 -167.007,102.127C-162.815,105.536 -169.375,128.933 -170.348,133.041C-171.322,137.149 -168.273,138.421 -164.074,137.245C-159.703,136.021 -146.201,124.876 -146.201,124.876C-146.201,124.876 -140.111,127.584 -131.743,122.896C-126.052,119.708 -122.668,112.869 -121.632,109.186C-121.63,109.219 -119.996,117.342 -119.876,119.025C-119.756,120.711 -113.941,112.972 -116.296,104.707C-118.448,97.156 -120.669,95.09 -121.04,93.544C-121.412,91.997 -110.931,102.024 -110.187,99.844C-108.96,96.248 -116.368,85.933 -124.61,84.394C-120.815,79.879 -120.808,76.561 -121.316,75.766C-123.026,70.883 -125.522,82.937 -125.522,82.939C-125.523,82.94 -124.041,70.643 -131.331,63.787C-131.797,65.428 -133.169,72.219 -133.169,72.219C-133.169,72.219 -141.68,55.88 -140.448,61.801C-139.518,66.266 -140.655,71.324 -140.655,71.324C-140.822,71.279 -144.823,57.724 -161.155,62.59C-157.324,63.846 -154.589,65.65 -155.686,69.987C-160.739,70.034 -168.423,72.347 -169.308,72.54C-170.249,72.746 -178.819,74.411 -179.616,74.532C-187.297,75.699 -194.354,75.339 -199.479,72.515C-202.771,70.701 -209.452,61.391 -209.029,57.047C-205.703,57.756 -200.672,56.815 -196.372,55.418C-195.837,55.725 -195.255,56.025 -194.573,56.309C-187.295,59.341 -179.107,53.681 -179.865,47.515C-180.623,41.348 -177.085,38.922 -174.811,34.424C-173.034,30.91 -167.491,28.135 -163.013,26.718C-157.448,24.957 -153.18,24.586 -149.465,27.202C-148.509,41.47 -149.559,46.085 -145.459,54.85C-141.861,62.541 -139.212,58.9 -136.912,55.415C-135.978,55.305 -135.041,55.175 -134.157,54.859C-133.165,54.504 -132.541,53.986 -132.001,53.082C-131.33,51.96 -131.045,50.417 -131.531,49.204C-131.905,48.272 -132.523,47.465 -133.239,46.755C-133.19,46.617 -132.708,45.619 -132.659,45.48C-132.283,45.526 -130.491,45.476 -129.931,45.122C-128.396,44.151 -127.693,43.281 -127.507,41.474C-127.443,40.852 -127.517,39.756 -127.809,39.201C-128.145,38.562 -128.596,38.153 -129.196,37.751C-129.409,37.608 -129.656,37.464 -129.901,37.455C-129.677,36.868 -128.151,34.545 -127.651,33.991C-126.717,33.962 -124.31,33.655 -123.006,31.324C-121.916,29.374 -122.172,28.439 -122.211,26.614C-121.425,25.497 -120.319,18.169 -119.443,17.675C-118.588,17.194 -116.307,16.924 -115.728,17.717C-115.023,18.683 -115.569,27.291 -115.411,29.152C-115.21,31.509 -115.282,34.184 -115.511,37.844C-115.541,38.323 -115.467,39.079 -115.315,40.039C-116.629,41.262 -117.605,43.038 -117.02,45.541C-116.473,47.882 -114.854,49.156 -113.102,49.853C-112.828,50.925 -112.539,52.035 -112.239,53.177C-113.972,54.871 -115.689,57.16 -115.192,59.126C-114.687,61.12 -111.935,62.336 -109.596,63.023C-109.452,63.553 -109.309,64.082 -109.166,64.611C-110.879,65.521 -114.415,67.864 -114.161,71.315C-113.897,74.894 -107.379,77.122 -105.741,77.627C-105.374,79.106 -105.048,80.477 -104.781,81.691C-102.108,93.832 -94.568,90.407 -89.966,87.264C-88.675,86.383 -83.749,82.347 -83.437,78.672C-83.136,75.134 -83.555,69.323 -84.917,65.565C-86.231,61.939 -90.057,59.353 -91.61,56.127C-95.265,48.533 -95.414,37.79 -95.907,36.396C-96.575,34.502 -89.972,33.822 -80.535,27.262C-80.409,27.174 -80.3,27.072 -80.177,26.982C-78.392,42.053 -69.873,49.133 -69.873,49.133C-67.783,51.841 -60.922,56.454 -53.393,49.826C-45.864,43.2 -45.867,35.21 -45.867,35.21C-43.262,21.777 -50.692,11.568 -50.692,11.568C-50.692,11.568 -49.042,10.744 -39.025,4.256C-29.007,-2.233 -35.554,-9.502 -37.827,-15.736C-40.1,-21.97 -36.534,-28.08 -37.074,-39.087C-37.614,-50.096 -42.258,-57.926 -47.102,-60.434C-51.946,-62.942 -63.946,-60.19 -63.946,-60.19C-63.946,-60.19 -65.498,-72.079 -72.004,-81.237C-81.233,-93.003 -91.048,-94.699 -99.104,-91.606C-107.159,-88.512 -110.547,-70.543 -110.446,-59.115C-109.763,-58.96 -117.758,-58.462 -121.972,-58.062C-137.232,-56.614 -147.257,-30.438 -149.596,-27.653C-149.624,-27.62 -160.417,-29.279 -163.505,-32.068C-162.243,-34.272 -161.194,-36.655 -161.611,-39.11C-161.944,-41.069 -163.204,-42.783 -164.777,-43.996C-166.202,-45.095 -167.874,-45.815 -169.581,-46.398C-169.589,-46.504 -162.754,-51.019 -162.138,-54.877C-161.545,-58.584 -163.281,-62.529 -166.32,-64.703C-163.675,-65.216 -162.143,-65.423 -159.753,-66.954C-157.716,-68.258 -155.63,-71.075 -155.181,-73.626C-154.835,-75.586 -155.262,-78.934 -155.335,-80.051C-154.333,-79.351 -150.856,-79.229 -149.036,-79.808C-146.929,-80.479 -144.994,-81.708 -143.527,-83.367C-141.73,-85.401 -140.115,-89.077 -140.513,-90.778C-139.858,-90.449 -137.559,-90.563 -136.634,-90.714C-134.498,-91.062 -132.455,-92.014 -130.851,-93.473C-129.154,-95.016 -127.99,-97.105 -127.482,-99.341C-126.953,-98.837 -126.033,-98.767 -125.35,-98.709C-123.003,-98.507 -120.564,-99.246 -118.78,-100.799C-117.05,-102.306 -116.009,-104.53 -115.834,-106.812C-114.595,-106.296 -112.384,-106.607 -111.323,-107.049C-108.211,-108.346 -104.964,-110.828 -105.306,-115.635C-103.547,-115.822 -101.685,-116.719 -100.125,-118.752C-97.99,-121.534 -99.691,-125.99 -99.691,-125.99C-99.691,-125.99 -97.134,-133.142 -97.676,-136.608C-99.054,-134.909 -101.921,-133.14 -105.474,-131.414C-110.746,-129.482 -121.003,-125.679 -126.279,-123.425C-126.728,-123.233 -127.188,-123.046 -127.655,-122.864C-128.996,-122.399 -130.21,-121.975 -131.245,-121.599C-135.333,-120.276 -139.725,-119.186 -143.658,-118.044C-150.652,-116.249 -160.516,-112.927 -174.261,-103.78C-189.49,-93.646 -212.151,-62.143 -212.151,-62.143C-212.151,-62.143 -210.499,-85.471 -236.835,-90.845C-228.82,-84.227 -231.011,-74.207 -231.011,-74.207C-231.011,-74.207 -234.686,-83.434 -248.133,-87.834C-241.611,-82.971 -242.097,-71.152 -242.097,-71.152C-242.097,-71.152 -248.027,-81.206 -253.208,-82.077C-246.859,-72.081 -253.529,-63.14 -253.529,-63.14C-253.529,-63.14 -257.749,-57.211 -265.485,-59.196C-266.389,-64.757 -267.202,-71.066 -266.614,-73.8C-265.49,-79.024 -257.874,-74.515 -257.882,-81.326C-257.677,-84.972 -260.844,-89.496 -265.746,-87.207C-268.198,-87.412 -262.523,-98.099 -265.122,-102.173C-268.432,-107.363 -274.426,-96.553 -274.497,-96.255C-277.313,-84.496 -275.323,-68.55 -272.883,-56.03C-275.33,-51.406 -276.945,-43.038 -277.837,-38.805C-278.729,-34.572 -279.94,-27.665 -279.615,-13.23C-279.785,-12.301 -283.092,-13.465 -286.64,-15.914C-289.891,-23.49 -291.792,-30.185 -291.792,-31.718C-291.792,-33.965 -285.358,-32.637 -285.358,-37.37C-285.358,-42.103 -292.916,-42.34 -294.346,-44.077C-295.776,-45.813 -290.811,-56.107 -293.87,-59.131C-297.451,-62.67 -300.676,-55.387 -301.42,-53.29C-303.89,-46.324 -299.351,-26.611 -297.074,-20.584C-295.589,-16.651 -291.851,-9.447 -289.433,-4.916C-289.004,-2.534 -288.366,-0.986 -288.139,0.351C-287.587,3.609 -285.372,13.508 -286.121,14.633C-287.258,16.341 -294.332,7.704 -294.654,7.468C-291.147,23.942 -280.89,37.484 -280.89,37.484C-280.89,37.484 -284.782,38.406 -292.833,32.446C-288.996,45.735 -275.755,53.154 -275.755,53.154C-275.755,53.154 -280.659,54.79 -287.559,49.852C-286.676,63.926 -272.667,73.115 -270.828,73.262C-270.697,73.212 -270.632,73.178 -270.632,73.178C-270.643,73.244 -270.711,73.271 -270.828,73.262ZM-92.73,-23.786C-85.997,-23.786 -81.475,-18.498 -81.475,-11.281C-81.475,-4.064 -86.31,1.286 -93.043,1.286C-99.777,1.286 -105.36,-4.064 -105.36,-11.281C-105.36,-18.498 -99.464,-23.786 -92.73,-23.786ZM-83.727,-12.844C-84.477,-20.972 -91.293,-22.723 -97.294,-21.535C-101.38,-20.727 -104.695,-13.475 -103.484,-8.968C-102.017,-3.502 -98.842,-1.038 -94.419,-0.902C-90.855,-0.792 -86.165,-1.339 -85.227,-6.467C-84.29,-11.594 -87.728,-11.844 -90.167,-9.405C-91.729,-7.843 -92.418,-5.528 -87.541,-4.466C-96.169,-0.589 -99.233,-8.155 -99.233,-8.155C-101.046,-12.657 -98.608,-16.096 -94.669,-17.159C-85.915,-18.659 -83.727,-12.844 -83.727,-12.844ZM-76.264,-29.368C-76.264,-29.368 -84.557,-53.434 -106.565,-57.414C-103.577,-69.861 -99.537,-74.28 -95.098,-75.36C-88.673,-76.924 -85.047,-74.634 -82.785,-72.075C-74.346,-62.529 -74.84,-57.223 -76.264,-29.368ZM-203.837,32.493C-203.837,32.493 -249.412,27.91 -247.091,2.449C-257.168,2.857 -260.493,6.527 -270.135,11.92C-287.888,-7.949 -252.091,-15.139 -245.809,-12.304C-243.652,-26.774 -233.286,-33.502 -229.2,-34.08C-238.981,-22.508 -240.627,-12.671 -239.387,13.726C-235.298,23.282 -202.316,29.484 -202.316,29.484L-203.837,32.493ZM-245.258,-1.676L-245.201,-8.94C-245.201,-8.94 -257.514,-8.175 -259.221,-6.23C-261.187,-3.991 -260.841,-3.151 -259.704,-1.678C-257.261,1.487 -245.258,-1.676 -245.258,-1.676ZM-141.327,115.309C-147.546,114.879 -149.344,109.45 -149.189,105.881C-149.034,102.313 -146.644,99.355 -145.019,98.476C-144.223,98.045 -139.281,95.893 -135.825,98.881C-133.213,101.139 -132.09,106.787 -134.429,111.119C-136.767,115.45 -141.327,115.309 -141.327,115.309ZM-135.807,104.757C-136.087,101.613 -138.373,99.581 -141.327,99.581C-144.42,99.581 -147.378,102.063 -147.378,105.571C-147.378,109.079 -144.42,112.283 -141.327,112.283C-140.105,112.283 -138.496,111.813 -137.836,111.193C-137.156,110.554 -136.369,108.846 -136.918,107.274C-137.386,105.933 -139.369,105.367 -140.179,105.961C-140.699,106.343 -140.962,108.398 -139.727,109.935C-140.59,110.321 -142.973,110.694 -144.851,107.727C-145.321,106.984 -145.431,104.322 -144.599,103.115C-144.21,102.552 -143.679,102.053 -142.831,101.757C-140.086,100.802 -137.825,101.435 -136.99,102.537C-136.559,103.105 -136.028,103.942 -135.807,104.757ZM-207.955,49.312C-207.955,49.312 -204.206,37.071 -202.416,34.939C-202.384,34.901 -198.131,37.321 -195.83,39.257C-194.52,40.36 -190.747,44.514 -191.931,46.278C-193.039,47.928 -198.291,47.702 -199.198,48.024C-199.532,48.142 -203.234,48.19 -205.331,48.477C-206.577,48.648 -207.645,48.904 -207.955,49.312ZM-52.316,13.615C-48.237,18.365 -42.531,41.071 -56.804,48.799C-62.039,51.632 -76.152,46.526 -77.714,21.452C-78.88,2.744 -76.425,-14.363 -75.438,-19.835C-74.451,-25.306 -72.007,-51.226 -73.754,-61.632C-76.103,-75.621 -85.598,-84.163 -94.42,-81.303C-103.924,-78.223 -108.565,-59.727 -108.565,-59.727C-108.565,-59.727 -109.034,-77.942 -101.267,-86.264C-97.218,-90.602 -83.517,-93.519 -73.53,-78.142C-60.827,-58.583 -68.878,-28.499 -71.346,-0.04C-72.775,16.444 -71.329,25.933 -68.62,33.325C-66.54,38.998 -61.513,45.004 -56.145,40.387C-47.87,33.27 -51.185,17.652 -52.316,13.615ZM-97.125,30.712C-99.378,20.743 -98.052,16.611 -91.721,14.256C-87.996,12.87 -82.431,15.271 -81.15,20.17C-79.574,26.192 -84.829,28.945 -87.454,30.08C-93.677,32.77 -95.54,32.995 -97.125,30.712ZM-95.483,29.962C-95.483,29.962 -93.703,31.228 -86.607,28.002C-85.989,27.721 -84.807,26.258 -84.427,24.811C-84.126,23.665 -85.135,22.152 -85.78,22.302C-88.06,22.833 -90.044,24.275 -87.881,26.316C-97.188,27.248 -95.483,29.962 -95.483,29.962ZM-82.687,23.579C-81.393,21.935 -85.986,15.207 -90.135,16.195C-95.401,17.45 -96.921,17.989 -96.238,26.339C-95.894,24.187 -95.291,22.63 -94.473,21.543C-93.347,20.047 -91.812,19.444 -89.981,19.407C-86.03,19.328 -82.976,21.119 -82.687,23.579Z" style="fill:white;"/>
            </g>
        </g>
    </g>
</svg>
